<svg xmlns="http://www.w3.org/2000/svg" width="470" height="550" viewBox="-25 -10 470 550"><defs><linearGradient id="grad1" x1="0" x2="1" y1="0" y2="1"><stop offset="0%" stop-color="#E8D5C4"/><stop offset="50%" stop-color="#F2E9DE"/><stop offset="100%" stop-color="#D4C0AB"/></linearGradient><linearGradient id="grad2" x1="0" x2="1" y1="0" y2="1"><stop offset="0%" stop-color="#C4D8E8"/><stop offset="50%" stop-color="#DAEAF4"/><stop offset="100%" stop-color="#A8C4D8"/></linearGradient><linearGradient id="grad3" x1="0" x2="1" y1="0" y2="1"><stop offset="0%" stop-color="#D4E8D0"/><stop offset="50%" stop-color="#E2F0DE"/><stop offset="100%" stop-color="#B8D4B2"/></linearGradient><clipPath id="cardClip"><rect width="330" height="380" rx="16" ry="16"/></clipPath><clipPath id="imgClip"><rect width="290" height="150" x="20" y="18" rx="10" ry="10"/></clipPath><style>@import url(https://fonts.googleapis.com/css2?family=Playfair+Display:ital,wght@0,400;1,400&amp;amp;family=DM+Sans:wght@400;500&amp;amp;display=swap);@keyframes frontMove{0%,27%,39%,60%,72%,93%,to{transform:translate(45px,50px) rotate(0deg)}33%,33.01%,66%,66.01%,99%,99.01%{transform:translate(30px,26px) rotate(-7.5deg)}}@keyframes show1{0%,27%,to{visibility:visible;opacity:1}30%,97%{visibility:hidden;opacity:0}}@keyframes show2{0%,30%,63%,to{visibility:hidden;opacity:0}33%,60%{visibility:visible;opacity:1}}@keyframes show3{0%,63%,96%,to{visibility:hidden;opacity:0}66%,93%{visibility:visible;opacity:1}}.card-wrap{filter:drop-shadow(0 6px 16px rgba(0,0,0,.08))}</style></defs><path fill="#F7F7F7" d="M-25-10h470v550H-25z"/><rect width="330" height="380" fill="#fff" class="card-wrap" rx="16" ry="16" transform="rotate(-7.5 378.342 164.144)"/><rect width="330" height="380" fill="#fff" class="card-wrap" rx="16" ry="16" transform="rotate(-4 698.953 -131.77)"/><g class="card-wrap" style="animation:frontMove 9s ease-in-out infinite;transform-origin:210px 430px"><rect width="330" height="380" fill="#fff" rx="16" ry="16"/><g clip-path="url(#cardClip)"><g style="animation:show1 9s ease-in-out infinite"><g clip-path="url(#imgClip)"><path fill="url(#grad1)" d="M20 18h290v150H20z"/><g transform="translate(149 100)"><circle cx="16" r="16" fill="rgba(170,145,120,0.45)"/><rect width="64" height="48" x="-16" y="20" fill="rgba(170,145,120,0.3)" rx="32"/></g></g><text fill="#1a1a1a" font-family="'Playfair Display', Georgia, serif" font-size="17" font-style="italic">
            <tspan x="20" y="190">Simple Ways to Boost Your</tspan>
            <tspan x="20" dy="23">Productivity and Stay Focused</tspan>
          </text><text x="20" y="248" fill="#9CA3AF" font-family="'DM Sans', system-ui, sans-serif" font-size="10" letter-spacing=".3">FEB 20TH, 2026</text><rect width="290" height="6" x="20" y="268" fill="#F0F0F0" rx="3"/><rect width="290" height="6" x="20" y="281" fill="#F0F0F0" rx="3"/><rect width="246" height="6" x="20" y="294" fill="#F0F0F0" rx="3"/><rect width="267" height="6" x="20" y="307" fill="#F0F0F0" rx="3"/><rect width="197" height="6" x="20" y="320" fill="#F0F0F0" rx="3"/></g><g style="animation:show2 9s ease-in-out infinite"><g clip-path="url(#imgClip)"><path fill="url(#grad2)" d="M20 18h290v150H20z"/><g transform="translate(113 132)"><rect width="20" height="36" y="-36" fill="#7BA8D4" rx="4"/><rect width="20" height="58" x="29" y="-58" fill="#5B92C8" rx="4"/><rect width="20" height="44" x="58" y="-44" fill="#7BA8D4" rx="4"/><rect width="20" height="76" x="87" y="-76" fill="#4A82BA" rx="4"/><rect width="20" height="52" x="116" y="-52" fill="#5B92C8" rx="4"/></g></g><text fill="#1a1a1a" font-family="'Playfair Display', Georgia, serif" font-size="17" font-style="italic">
            <tspan x="20" y="190">7 Best Invoice Tools for Small</tspan>
            <tspan x="20" dy="23">Businesses in 2026</tspan>
          </text><text x="20" y="248" fill="#9CA3AF" font-family="'DM Sans', system-ui, sans-serif" font-size="10" letter-spacing=".3">FEB 21ST, 2026</text><rect width="290" height="6" x="20" y="268" fill="#F0F0F0" rx="3"/><rect width="290" height="6" x="20" y="281" fill="#F0F0F0" rx="3"/><rect width="261" height="6" x="20" y="294" fill="#F0F0F0" rx="3"/><rect width="278" height="6" x="20" y="307" fill="#F0F0F0" rx="3"/><rect width="209" height="6" x="20" y="320" fill="#F0F0F0" rx="3"/></g><g style="animation:show3 9s ease-in-out infinite"><g clip-path="url(#imgClip)"><path fill="url(#grad3)" d="M20 18h290v150H20z"/><g transform="translate(137 58)"><rect width="56" height="70" fill="rgba(120,165,115,0.25)" rx="5" ry="5"/><rect width="34" height="3.5" x="9" y="12" fill="rgba(120,165,115,0.25)" rx="2"/><rect width="42" height="3.5" x="9" y="21" fill="rgba(120,165,115,0.25)" rx="2"/><rect width="38" height="3.5" x="9" y="30" fill="rgba(120,165,115,0.25)" rx="2"/><rect width="28" height="3.5" x="9" y="39" fill="rgba(120,165,115,0.25)" rx="2"/></g></g><text fill="#1a1a1a" font-family="'Playfair Display', Georgia, serif" font-size="17" font-style="italic">
            <tspan x="20" y="190">How to Write a Winning</tspan>
            <tspan x="20" dy="23">Proposal That Closes Deals</tspan>
          </text><text x="20" y="248" fill="#9CA3AF" font-family="'DM Sans', system-ui, sans-serif" font-size="10" letter-spacing=".3">FEB 23RD, 2026</text><rect width="290" height="6" x="20" y="268" fill="#F0F0F0" rx="3"/><rect width="290" height="6" x="20" y="281" fill="#F0F0F0" rx="3"/><rect width="255" height="6" x="20" y="294" fill="#F0F0F0" rx="3"/><rect width="273" height="6" x="20" y="307" fill="#F0F0F0" rx="3"/><rect width="203" height="6" x="20" y="320" fill="#F0F0F0" rx="3"/></g></g></g></svg>