<svg xmlns="http://www.w3.org/2000/svg" fill="none" viewBox="0 0 560 440"><defs><clipPath id="a"><rect width="560" height="440" rx="24"/></clipPath><symbol id="c" viewBox="0 0 60 60"><circle cx="30" cy="30" r="30" fill="#FF4500"/><path fill="#fff" d="M34.457 18.063a3.733 3.733 0 1 0-.023-1.615 6.03 6.03 0 0 0-5.376 5.986v.02c-3.283.138-6.28 1.072-8.66 2.548a5.23 5.23 0 1 0-5.416 8.876c.173 6.072 6.79 10.957 14.929 10.957s14.764-4.89 14.929-10.968a5.232 5.232 0 0 0-2.244-9.955 5.203 5.203 0 0 0-3.185 1.083c-2.4-1.486-5.432-2.42-8.748-2.545v-.014a4.42 4.42 0 0 1 3.794-4.37ZM20.187 32.46c.088-1.897 1.348-3.353 2.813-3.353s2.584 1.538 2.497 3.435c-.088 1.897-1.181 2.587-2.648 2.587s-2.749-.772-2.662-2.669Zm16.636-3.353c1.466 0 2.726 1.456 2.812 3.353.088 1.897-1.197 2.669-2.662 2.669s-2.56-.688-2.647-2.586c-.088-1.898 1.03-3.436 2.497-3.436ZM35.08 36.85c.275.028.45.313.343.569a5.975 5.975 0 0 1-11.025 0 .414.414 0 0 1 .343-.569c1.61-.163 3.351-.252 5.17-.252s3.557.09 5.169.252Z"/></symbol><filter id="b" width="108%" height="112%" x="-4%" y="-2%"><feDropShadow dx="0" dy="2" flood-color="#000" flood-opacity=".06" stdDeviation="6"/></filter></defs><g clip-path="url(#a)"><rect width="560" height="440" fill="#F7F7F7" rx="24"/><g filter="url(#b)"><rect width="496" height="110" x="32" y="32" fill="#fff" rx="16"/><use width="56" height="56" x="52" y="57" href="#c"/><text x="126" y="76" fill="#1a1a1a" font-family="'SF Pro Display', 'Segoe UI', Helvetica, sans-serif" font-size="15.5" font-weight="600">What invoice tool do you recommend?</text><rect width="260" height="8" x="126" y="90" fill="#e9e9ed" rx="4"/><rect width="180" height="8" x="126" y="106" fill="#e9e9ed" rx="4"/><rect width="72" height="28" x="438" y="60" fill="#e8f5e9" rx="14"/><text x="452" y="79" fill="#2e7d32" font-family="'SF Pro Display', 'Segoe UI', Helvetica, sans-serif" font-size="13" font-weight="600">↑ 142</text></g><g filter="url(#b)"><rect width="496" height="110" x="32" y="164" fill="#fff" rx="16"/><use width="56" height="56" x="52" y="189" href="#c"/><text x="126" y="208" fill="#1a1a1a" font-family="'SF Pro Display', 'Segoe UI', Helvetica, sans-serif" font-size="15.5" font-weight="600">How do I create invoices online?</text><rect width="240" height="8" x="126" y="222" fill="#e9e9ed" rx="4"/><rect width="160" height="8" x="126" y="238" fill="#e9e9ed" rx="4"/><rect width="72" height="28" x="438" y="192" fill="#e8f5e9" rx="14"/><text x="455" y="211" fill="#2e7d32" font-family="'SF Pro Display', 'Segoe UI', Helvetica, sans-serif" font-size="13" font-weight="600">↑ 89</text></g><g filter="url(#b)"><rect width="496" height="110" x="32" y="296" fill="#fff" rx="16"/><use width="56" height="56" x="52" y="321" href="#c"/><text x="126" y="340" fill="#1a1a1a" font-family="'SF Pro Display', 'Segoe UI', Helvetica, sans-serif" font-size="15.5" font-weight="600">Freelancers, how do you invoice?</text><rect width="280" height="8" x="126" y="354" fill="#e9e9ed" rx="4"/><rect width="200" height="8" x="126" y="370" fill="#e9e9ed" rx="4"/><rect width="72" height="28" x="438" y="324" fill="#e8f5e9" rx="14"/><text x="450" y="343" fill="#2e7d32" font-family="'SF Pro Display', 'Segoe UI', Helvetica, sans-serif" font-size="13" font-weight="600">↑ 214</text></g></g></svg>