<svg xmlns="http://www.w3.org/2000/svg" fill="none" viewBox="0 0 680 400"><defs><clipPath id="b"><path d="M440 72h198v72H440z"/></clipPath><clipPath id="e"><path d="M440 182h198v72H440z"/></clipPath><clipPath id="f"><path d="M440 292h198v72H440z"/></clipPath><filter id="a" width="106%" height="112%" x="-3%" y="-2%"><feDropShadow dx="0" dy="2" flood-color="#000" flood-opacity=".06" stdDeviation="6"/></filter><filter id="d" width="300%" height="300%" x="-100%" y="-100%"><feGaussianBlur in="SourceGraphic" result="blur" stdDeviation="3"/><feComposite in="SourceGraphic" in2="blur"/></filter><linearGradient id="c" x1="0" x2="0" y1="0" y2="1"><stop offset="0%" stop-color="#2563EB" stop-opacity=".12"/><stop offset="100%" stop-color="#2563EB" stop-opacity="0"/></linearGradient></defs><path fill="#F7F7F7" d="M0 0h680v400H0z"/><text x="48" y="38" fill="#9ca3af" font-family="'SF Pro Text','Segoe UI',-apple-system,sans-serif" font-size="11" font-weight="600" letter-spacing=".8">KEYWORD</text><text x="340" y="38" fill="#9ca3af" font-family="'SF Pro Text','Segoe UI',-apple-system,sans-serif" font-size="11" font-weight="600" letter-spacing=".8">OPPORTUNITY</text><text x="500" y="38" fill="#9ca3af" font-family="'SF Pro Text','Segoe UI',-apple-system,sans-serif" font-size="11" font-weight="600" letter-spacing=".8">TREND (12M)</text><path stroke="#e5e7eb" d="M32 52h616"/><g filter="url(#a)"><rect width="616" height="88" x="32" y="64" fill="#fff" rx="12"/></g><text x="52" y="100" fill="#1e293b" font-family="'SF Pro Text','Segoe UI',-apple-system,sans-serif" font-size="15.5" font-weight="600">invoice tool</text><text x="52" y="122" fill="#94a3b8" font-family="'SF Pro Text','Segoe UI',-apple-system,sans-serif" font-size="11.5">18K monthly searches</text><rect width="62" height="26" x="338" y="92" fill="#ecfdf5" stroke="#a7f3d0" rx="7"/><text x="369" y="110" fill="#059669" font-family="'SF Pro Text','Segoe UI',-apple-system,sans-serif" font-size="12" font-weight="600" text-anchor="middle">High</text><g clip-path="url(#b)"><path fill="url(#c)" d="M448 132v-20q20 4 40-2t30-4 30 2 30-8 30-4 22-6v42Z"/><path stroke="#2563EB" stroke-linecap="round" stroke-width="2" d="M448 112q20 4 40-2t30-4 30 2 30-8 30-4 22-6"/><circle cx="630" cy="90" r="3" fill="#2563EB" filter="url(#d)"/><circle cx="630" cy="90" r="1.5" fill="#fff"/></g><g filter="url(#a)"><rect width="616" height="88" x="32" y="174" fill="#fff" rx="12"/></g><text x="52" y="210" fill="#1e293b" font-family="'SF Pro Text','Segoe UI',-apple-system,sans-serif" font-size="15.5" font-weight="600">create invoice online</text><text x="52" y="232" fill="#94a3b8" font-family="'SF Pro Text','Segoe UI',-apple-system,sans-serif" font-size="11.5">74K monthly searches</text><rect width="62" height="26" x="338" y="202" fill="#ecfdf5" stroke="#a7f3d0" rx="7"/><text x="369" y="220" fill="#059669" font-family="'SF Pro Text','Segoe UI',-apple-system,sans-serif" font-size="12" font-weight="600" text-anchor="middle">High</text><g clip-path="url(#e)"><path fill="url(#c)" d="M448 242v-18q22 4 42-6t30 4 28-8 30 4 30-10 22-6v40Z"/><path stroke="#2563EB" stroke-linecap="round" stroke-width="2" d="M448 224q22 4 42-6t30 4 28-8 30 4 30-10 22-6"/><circle cx="630" cy="202" r="3" fill="#2563EB" filter="url(#d)"/><circle cx="630" cy="202" r="1.5" fill="#fff"/></g><g filter="url(#a)"><rect width="616" height="88" x="32" y="284" fill="#fff" rx="12"/></g><text x="52" y="320" fill="#1e293b" font-family="'SF Pro Text','Segoe UI',-apple-system,sans-serif" font-size="15.5" font-weight="600">freelance billing software</text><text x="52" y="342" fill="#94a3b8" font-family="'SF Pro Text','Segoe UI',-apple-system,sans-serif" font-size="11.5">5.4K monthly searches</text><rect width="62" height="26" x="338" y="312" fill="#ecfdf5" stroke="#a7f3d0" rx="7"/><text x="369" y="330" fill="#059669" font-family="'SF Pro Text','Segoe UI',-apple-system,sans-serif" font-size="12" font-weight="600" text-anchor="middle">High</text><g clip-path="url(#f)"><path fill="url(#c)" d="M448 352v-16q18-4 38-2t30-6 30 4 30-8 30 4 24-10v34Z"/><path stroke="#2563EB" stroke-linecap="round" stroke-width="2" d="M448 336q18-4 38-2t30-6 30 4 30-8 30 4 24-10"/><circle cx="630" cy="318" r="3" fill="#2563EB" filter="url(#d)"/><circle cx="630" cy="318" r="1.5" fill="#fff"/></g></svg>