<svg xmlns="http://www.w3.org/2000/svg" width="900" height="420" font-family="Google Sans, Roboto, Arial, sans-serif" viewBox="-20 -20 900 420"><defs><linearGradient id="d" x1="0" x2="0" y1="0" y2="1"><stop offset="0%" stop-color="#4285F4" stop-opacity=".22"/><stop offset="100%" stop-color="#4285F4" stop-opacity="0"/></linearGradient><linearGradient id="b" x1="0" x2="0" y1="0" y2="1"><stop offset="0%" stop-color="#7B5EA7" stop-opacity=".18"/><stop offset="100%" stop-color="#7B5EA7" stop-opacity="0"/></linearGradient><clipPath id="c"><rect height="260" x="52" y="80"><animate attributeName="width" dur="13s" keyTimes="0;0.06;0.65;1" repeatCount="indefinite" values="0;0;790;790"/></rect></clipPath><filter id="a" width="130%" height="130%" x="-10%" y="-10%"><feDropShadow dx="0" dy="4" flood-color="#000" flood-opacity=".13" stdDeviation="12"/></filter></defs><rect width="860" height="390" fill="#fff" filter="url(#a)" rx="10"/><rect width="215" height="80" fill="#4285F4" rx="10"/><path fill="#4285F4" d="M0 40h10v40H0zM205 0h10v80h-10z"/><rect width="13" height="13" x="16" y="20" fill="none" stroke="#ffffffcc" stroke-width="1.5" rx="2"/><path fill="none" stroke="#fff" stroke-linecap="round" stroke-linejoin="round" stroke-width="1.6" d="M18.5 26.5 21 29l5.5-5.5"/><text x="34" y="31" fill="#ffffffee" font-size="12" font-weight="400">Total clicks</text><text x="16" y="64" fill="#fff" font-size="30" font-weight="400">
    <animate attributeName="opacity" dur="13s" keyTimes="0;0.05;0.12;1" repeatCount="indefinite" values="0;0;1;1"/>
    27.1K
  </text><circle cx="200" cy="66" r="8" fill="#ffffff28"/><text x="200" y="70" fill="#ffffffaa" font-size="10" text-anchor="middle">?</text><path fill="#5E35B1" d="M215 0h215v80H215z"/><rect width="13" height="13" x="231" y="20" fill="none" stroke="#ffffffcc" stroke-width="1.5" rx="2"/><path fill="none" stroke="#fff" stroke-linecap="round" stroke-linejoin="round" stroke-width="1.6" d="M233.5 26.5 236 29l5.5-5.5"/><text x="249" y="31" fill="#ffffffee" font-size="12" font-weight="400">Total impressions</text><text x="231" y="64" fill="#fff" font-size="30" font-weight="400">
    <animate attributeName="opacity" dur="13s" keyTimes="0;0.05;0.12;1" repeatCount="indefinite" values="0;0;1;1"/>
    2.46M
  </text><circle cx="415" cy="66" r="8" fill="#ffffff28"/><text x="415" y="70" fill="#ffffffaa" font-size="10" text-anchor="middle">?</text><path fill="#fff" d="M430 0h215v80H430z"/><rect width="13" height="13" x="460" y="20" fill="none" stroke="#dadce0" stroke-width="1.5" rx="2"/><text x="479" y="31" fill="#5f6368" font-size="12">Average CTR</text><text x="460" y="64" fill="#3c4043" font-size="30" font-weight="400">1.1%</text><rect width="215" height="80" x="645" fill="#fff" rx="0"/><rect width="13" height="13" x="675" y="20" fill="none" stroke="#dadce0" stroke-width="1.5" rx="2"/><text x="694" y="31" fill="#5f6368" font-size="12">Average position</text><text x="675" y="64" fill="#3c4043" font-size="30" font-weight="400">13.4</text><path stroke="#dadce0" d="M0 80h860M430 0v80M645 0v80"/><text x="48" y="105" fill="#5f6368" font-size="11" text-anchor="end">600</text><text x="48" y="155" fill="#5f6368" font-size="11" text-anchor="end">400</text><text x="48" y="205" fill="#5f6368" font-size="11" text-anchor="end">200</text><text x="48" y="263" fill="#5f6368" font-size="11" text-anchor="end">0</text><text x="814" y="105" fill="#5f6368" font-size="11">45K</text><text x="814" y="155" fill="#5f6368" font-size="11">30K</text><text x="814" y="205" fill="#5f6368" font-size="11">15K</text><text x="814" y="263" fill="#5f6368" font-size="11">0</text><path stroke="#e8eaed" d="M52 102h758M52 152h758M52 202h758"/><path stroke="#e8eaed" stroke-width="1.5" d="M52 262h758"/><text x="62" y="282" fill="#5f6368" font-size="10.5">11/18/25</text><text x="168" y="282" fill="#5f6368" font-size="10.5">11/29/25</text><text x="272" y="282" fill="#5f6368" font-size="10.5">12/10/25</text><text x="376" y="282" fill="#5f6368" font-size="10.5">12/21/25</text><text x="480" y="282" fill="#5f6368" font-size="10.5">1/1/26</text><text x="578" y="282" fill="#5f6368" font-size="10.5">1/12/26</text><text x="678" y="282" fill="#5f6368" font-size="10.5">1/23/26</text><text x="762" y="282" fill="#5f6368" font-size="10.5">2/14/26</text><path fill="url(#b)" d="m52 262 18-1 20-1 20-1h20l20-1 20-1h20l20-1h20l20-1 20-1 20-1 20-1 20-1 10-1 15-2 15-4 15-2 10 5 10-7 15-8 15-8 10 5 10-11 13-10 10 7 10-11 12-12 10-7 8-7 8-8 8-5 6 7 6-13 8-7 6 5 6-9 8-7 6 7 6-11 6-5 8 6 7-10 7-4 6 6 6-10 7 6 7-9 7 5 7-9 7 6 7-11 6 7 6-10 7 7 7-10 6 7 7 9 7-11 6 7 6-11 7 7 7-11 6 8 6-11 7 8 6-11 6 7 7 7 7 5 8 6 7 4 10 6v134Z" clip-path="url(#c)"/><path fill="none" stroke="#7B5EA7" stroke-linejoin="round" stroke-width="2" d="m52 262 18-1 20-1 20-1h20l20-1 20-1h20l20-1h20l20-1 20-1 20-1 20-1 20-1 10-1 15-2 15-4 15-2 10 5 10-7 15-8 15-8 10 5 10-11 13-10 10 7 10-11 12-12 10-7 8-7 8-8 8-5 6 7 6-13 8-7 6 5 6-9 8-7 6 7 6-11 6-5 8 6 7-10 7-4 6 6 6-10 7 6 7-9 7 5 7-9 7 6 7-11 6 7 6-10 7 7 7-10 6 7 7 9 7-11 6 7 6-11 7 7 7-11 6 8 6-11 7 8 6-11 6 7 7 7 7 5 8 6 7 4 10 6" clip-path="url(#c)"/><path fill="url(#d)" d="m52 262 18-1h20l20-1h20l20-1 20-1h20l20-1h20l20-1 20-1 20-1 20-1h20l10-1 15-2 15-3 15-2 10 5 10-6 15-7 15-7 10 5 10-10 13-9 10 6 10-10 12-10 10-6 8-6 8-7 8-6 6 7 6-12 8-6 6 5 6-9 8-6 6 6 6-10 6-5 8 6 7-9 7-4 6 6 6-9 7 6 7-9 7 6 7-10 7 6 7-9 6 6 6-10 7 6 7-9 6 6 7 9 7-10 6 6 6-9 7 6 7-10 6 7 6-10 7 7 6-10 6 6 7 8 7 6 8 6 7 4 10 6v114Z" clip-path="url(#c)"/><path fill="none" stroke="#4285F4" stroke-linejoin="round" stroke-width="2" d="m52 262 18-1h20l20-1h20l20-1 20-1h20l20-1h20l20-1 20-1 20-1 20-1h20l10-1 15-2 15-3 15-2 10 5 10-6 15-7 15-7 10 5 10-10 13-9 10 6 10-10 12-10 10-6 8-6 8-7 8-6 6 7 6-12 8-6 6 5 6-9 8-6 6 6 6-10 6-5 8 6 7-9 7-4 6 6 6-9 7 6 7-9 7 6 7-10 7 6 7-9 6 6 6-10 7 6 7-9 6 6 7 9 7-10 6 6 6-9 7 6 7-10 6 7 6-10 7 7 6-10 6 6 7 8 7 6 8 6 7 4 10 6" clip-path="url(#c)"/><path stroke="#5f6368" stroke-dasharray="5,4" stroke-width="1.5" d="M340 102v160"><animate attributeName="opacity" dur="13s" keyTimes="0;0.06;0.38;0.46;0.97;1" repeatCount="indefinite" values="0;0;0;1;1;1"/></path><circle cx="340" cy="262" r="5" fill="#3c4043" stroke="#fff" stroke-width="2"><animate attributeName="opacity" dur="13s" keyTimes="0;0.06;0.38;0.46;0.97;1" repeatCount="indefinite" values="0;0;0;1;1;1"/></circle><g><animate attributeName="opacity" dur="13s" keyTimes="0;0.06;0.38;0.46;0.97;1" repeatCount="indefinite" values="0;0;0;1;1;1"/><rect width="184" height="36" x="228" y="210" fill="#fff" stroke="#dadce0" filter="url(#a)" rx="5"/><path fill="#fff" d="m335 246 5 8 5-8z"/><rect width="4" height="36" x="228" y="210" fill="#4285F4" rx="2"/><text x="241" y="233" fill="#4285F4" font-size="13">↗</text><text x="258" y="233" fill="#202124" font-size="11.5" font-weight="500">Started using RankSpot</text></g><g><animate attributeName="opacity" calcMode="discrete" dur="13s" keyTimes="0;0.06;0.60;0.68;0.72;0.95;1" repeatCount="indefinite" values="0;0;0;0;1;1;0"/><path stroke="#5f6368" stroke-dasharray="3,3" d="M765 102v160"/><rect width="148" height="74" x="610" y="106" fill="#fff" stroke="#dadce0" filter="url(#a)" rx="5"/><text x="620" y="123" fill="#5f6368" font-size="11" font-weight="500">Feb 14, 2026</text><path stroke="#e8eaed" d="M610 128h148"/><rect width="8" height="8" x="620" y="136" fill="#4285F4" rx="1"/><text x="634" y="144" fill="#202124" font-size="11">Clicks: <tspan font-weight="600">589</tspan></text><rect width="8" height="8" x="620" y="154" fill="#7B5EA7" rx="1"/><text x="634" y="162" fill="#202124" font-size="11">Impr.: <tspan font-weight="600">44.2K</tspan></text><circle cx="765" cy="118" r="4" fill="#4285F4" stroke="#fff" stroke-width="2"/><circle cx="765" cy="100" r="4" fill="#7B5EA7" stroke="#fff" stroke-width="2"/></g><circle cx="58" cy="308" r="5" fill="#4285F4"/><text x="70" y="313" fill="#202124" font-size="12">Clicks</text><circle cx="134" cy="308" r="5" fill="#7B5EA7"/><text x="146" y="313" fill="#202124" font-size="12">Impressions</text></svg>